<svg version="1.1" id="Layer_1" xmlns="http://www.w3.org/2000/svg" xmlns:xlink="http://www.w3.org/1999/xlink" x="0px" y="0px"
	 width="100%" viewBox="0 0 630 630" enable-background="new 0 0 630 630" xml:space="preserve">
<path fill="#000000" opacity="1.000000" stroke="none" 
	d="
M398.000000,631.000000 
	C265.333344,631.000000 133.166718,631.000000 1.000053,631.000000 
	C1.000036,421.000061 1.000036,211.000122 1.000018,1.000138 
	C210.999893,1.000092 420.999786,1.000092 630.999756,1.000046 
	C630.999878,210.999863 630.999878,420.999725 630.999939,630.999756 
	C553.500000,631.000000 476.000000,631.000000 398.000000,631.000000 
M147.955109,436.698669 
	C148.324417,436.978851 148.693710,437.259033 149.465286,437.997711 
	C173.304901,461.900482 197.141266,485.806549 220.985703,509.704498 
	C230.853058,519.594055 240.675629,529.529480 250.636795,539.323853 
	C256.972137,545.553040 265.172760,546.276367 271.173737,540.487305 
	C282.767975,529.302551 293.922913,517.662354 305.841156,505.986481 
	C307.004761,504.659943 308.168365,503.333405 309.394531,502.006714 
	C309.394531,502.006714 309.407013,501.945435 310.082275,501.703522 
	C330.364471,481.458496 350.657440,461.224213 370.895905,440.935608 
	C371.874023,439.955078 372.372375,438.496002 373.752930,437.151093 
	C374.550568,436.465759 375.348236,435.780396 376.090485,435.066620 
	C376.090485,435.066620 376.118835,435.122345 376.730286,434.851105 
	C398.963928,412.534210 421.197571,390.217285 444.046570,367.560181 
	C448.725128,362.859711 453.398529,358.154053 458.083588,353.460083 
	C464.588409,346.942841 471.177765,340.507904 477.589539,333.900513 
	C483.523804,327.785156 489.272034,321.489258 495.733521,315.006073 
	C510.179840,300.742004 524.626160,286.477966 539.691345,271.929840 
	C559.246399,252.396164 578.830078,232.891083 598.342285,213.314697 
	C606.143616,205.487747 606.028015,197.571426 598.032471,189.649048 
	C587.094177,178.810822 575.950928,168.178162 565.084717,157.268875 
	C543.773376,135.873016 522.671021,114.268684 501.316406,92.916367 
	C493.628510,85.229347 484.993805,85.522934 477.386597,93.113403 
	C469.370758,101.111610 461.351379,109.106400 453.366272,117.135239 
	C435.885162,134.712097 418.424805,152.309555 400.338593,170.170166 
	C389.517273,181.098129 378.695923,192.026093 367.261017,203.205933 
	C352.826538,217.763733 338.392059,232.321518 323.340057,247.154541 
	C302.642944,267.789185 281.945831,288.423828 260.975342,308.489349 
	C260.332855,307.961121 259.690369,307.432922 258.806396,306.283142 
	C224.198883,271.673950 189.587677,237.068451 154.986435,202.453003 
	C146.230515,193.693466 137.860458,193.624069 129.148132,202.333542 
	C97.331200,234.140060 65.521500,265.953827 33.716484,297.772247 
	C24.963711,306.528748 25.064476,314.005432 33.917377,322.829437 
	C49.966698,338.826355 65.963478,354.876007 82.014404,370.871307 
	C102.544014,391.329742 123.105499,411.756165 143.916595,432.813843 
	C145.270447,433.897186 146.624283,434.980560 147.994461,435.998077 
	C147.994461,435.998077 147.927383,435.988220 147.955109,436.698669 
z"/>
<path fill="#F3BF43" opacity="1.000000" stroke="none" 
	d="
M143.653244,432.196381 
	C123.105499,411.756165 102.544014,391.329742 82.014404,370.871307 
	C65.963478,354.876007 49.966698,338.826355 33.917377,322.829437 
	C25.064476,314.005432 24.963711,306.528748 33.716484,297.772247 
	C65.521500,265.953827 97.331200,234.140060 129.148132,202.333542 
	C137.860458,193.624069 146.230515,193.693466 154.986435,202.453003 
	C189.587677,237.068451 224.198883,271.673950 258.821198,306.916809 
	C258.675751,307.839569 258.572083,308.185303 258.347260,308.409637 
	C224.107605,342.577271 189.892334,376.769470 155.578049,410.862000 
	C149.977020,416.426910 144.129715,421.644348 144.679260,430.551361 
	C144.711670,431.076569 144.012146,431.647003 143.653244,432.196381 
z"/>
<path fill="#6397F4" opacity="1.000000" stroke="none" 
	d="
M443.431213,367.900360 
	C421.197571,390.217285 398.963928,412.534210 376.405090,434.587769 
	C376.982635,431.686615 377.729034,428.981323 378.829681,426.428802 
	C380.067627,423.557831 380.201843,422.260895 376.547729,420.569550 
	C371.786316,418.365662 366.925964,415.011322 363.879578,410.854034 
	C360.893463,406.778931 360.252289,401.012238 353.597656,400.663696 
	C352.872375,400.625702 351.728088,399.495789 351.596680,398.731598 
	C350.903259,394.698242 347.935242,393.152954 344.719788,391.544495 
	C343.573334,390.971039 342.229065,389.318604 342.239349,388.170013 
	C342.277771,383.890045 339.382477,382.727386 336.288269,381.181824 
	C334.418884,380.248108 332.975189,378.362488 331.506958,376.752533 
	C329.944122,375.038818 328.278717,373.308441 327.185883,371.298431 
	C324.584442,366.513672 317.374084,365.878418 316.674377,359.432190 
	C316.619873,358.930145 315.776703,358.539185 315.358246,358.047150 
	C312.164978,354.292450 304.979218,355.921234 303.747131,349.459686 
	C303.703156,349.229187 302.701050,349.294617 302.406982,348.978729 
	C301.190216,347.671600 299.718292,346.435425 298.994110,344.870544 
	C297.423553,341.476746 296.133545,338.216431 291.574310,337.804932 
	C290.372620,337.696442 289.227692,335.925323 288.234039,334.765747 
	C286.305481,332.515198 284.573944,330.094452 282.622314,327.865448 
	C281.347931,326.409943 279.839844,325.157074 278.418915,323.832214 
	C272.865448,318.654205 268.887207,310.662506 259.252625,312.706482 
	C260.009521,311.292542 260.629120,310.175507 261.248718,309.058472 
	C281.945831,288.423828 302.642944,267.789185 323.737976,247.302338 
	C325.228973,247.122528 326.305878,246.718491 327.418457,246.483032 
	C329.813599,245.976166 332.952789,244.359329 334.509888,245.303543 
	C342.021393,249.858505 345.384338,259.695984 355.085632,261.735870 
	C355.613312,261.846802 355.771759,263.217773 356.323303,263.788330 
	C361.232819,268.867188 366.910095,273.390656 370.933838,279.086121 
	C374.914124,284.720062 380.495300,288.033569 385.215393,292.496674 
	C391.811127,298.733307 396.380341,307.057922 402.358002,314.024658 
	C405.800171,318.036377 410.191681,321.282684 414.389771,324.575287 
	C416.391296,326.145111 420.171509,326.467621 420.998596,328.316010 
	C423.161621,333.150116 426.814606,335.649902 431.147461,337.979095 
	C432.714996,338.821777 433.487854,341.085602 434.716766,342.626404 
	C437.981049,346.719208 440.662262,351.677612 444.785431,354.562012 
	C448.283997,357.009430 447.299683,358.113892 445.881561,360.702362 
	C444.681946,362.891968 444.219788,365.485565 443.431213,367.900360 
z"/>
<path fill="#5F93F1" opacity="1.000000" stroke="none" 
	d="
M259.115265,313.003418 
	C268.887207,310.662506 272.865448,318.654205 278.418915,323.832214 
	C279.839844,325.157074 281.347931,326.409943 282.622314,327.865448 
	C284.573944,330.094452 286.305481,332.515198 288.234039,334.765747 
	C289.227692,335.925323 290.372620,337.696442 291.574310,337.804932 
	C296.133545,338.216431 297.423553,341.476746 298.994110,344.870544 
	C299.718292,346.435425 301.190216,347.671600 302.406982,348.978729 
	C302.701050,349.294617 303.703156,349.229187 303.747131,349.459686 
	C304.979218,355.921234 312.164978,354.292450 315.358246,358.047150 
	C315.776703,358.539185 316.619873,358.930145 316.674377,359.432190 
	C317.374084,365.878418 324.584442,366.513672 327.185883,371.298431 
	C328.278717,373.308441 329.944122,375.038818 331.506958,376.752533 
	C332.975189,378.362488 334.418884,380.248108 336.288269,381.181824 
	C339.382477,382.727386 342.277771,383.890045 342.239349,388.170013 
	C342.229065,389.318604 343.573334,390.971039 344.719788,391.544495 
	C347.935242,393.152954 350.903259,394.698242 351.596680,398.731598 
	C351.728088,399.495789 352.872375,400.625702 353.597656,400.663696 
	C360.252289,401.012238 360.893463,406.778931 363.879578,410.854034 
	C366.925964,415.011322 371.786316,418.365662 376.547729,420.569550 
	C380.201843,422.260895 380.067627,423.557831 378.829681,426.428802 
	C377.729034,428.981323 376.982635,431.686615 376.099365,434.723389 
	C376.118835,435.122345 376.090485,435.066620 375.759613,435.088898 
	C374.650543,435.827362 373.872345,436.543579 373.094177,437.259766 
	C372.372375,438.496002 371.874023,439.955078 370.895905,440.935608 
	C350.657440,461.224213 330.364471,481.458496 309.712097,501.382385 
	C310.484406,497.066284 309.614105,493.639862 306.767334,490.546844 
	C304.386658,487.960266 302.241486,485.151611 300.066956,482.382446 
	C298.648529,480.576050 297.384613,478.649231 296.012695,476.805176 
	C295.066589,475.533478 294.003448,474.347107 293.086609,473.055847 
	C292.268005,471.903046 291.801971,470.412354 290.793610,469.496674 
	C285.947418,465.095795 280.903442,460.912598 276.058960,456.509857 
	C271.693237,452.542328 268.707581,447.703796 262.462585,445.013702 
	C257.478912,442.866943 254.045197,435.806854 251.319992,430.243622 
	C249.776489,427.092712 248.541870,425.058868 245.205505,425.084656 
	C240.725128,425.119202 239.314926,422.353851 237.326721,418.908630 
	C235.795792,416.255798 231.877884,414.987427 229.049469,413.062164 
	C228.840683,412.920044 228.932541,412.396820 228.761520,412.129486 
	C226.462311,408.535095 224.480240,404.666168 221.738556,401.444885 
	C218.419998,397.545898 213.911102,394.747772 210.064941,391.404755 
	C204.336624,386.425842 199.960831,381.332428 198.172058,373.789795 
	C205.126038,366.656982 211.905548,359.798798 218.746414,353.002289 
	C232.184662,339.651215 245.657028,326.334412 259.115265,313.003418 
z"/>
<path fill="#6C9FFA" opacity="1.000000" stroke="none" 
	d="
M400.955933,169.898590 
	C418.424805,152.309555 435.885162,134.712097 453.366272,117.135239 
	C461.351379,109.106400 469.370758,101.111610 477.386597,93.113403 
	C484.993805,85.522934 493.628510,85.229347 501.316406,92.916367 
	C522.671021,114.268684 543.773376,135.873016 565.084717,157.268875 
	C575.950928,168.178162 587.094177,178.810822 598.032471,189.649048 
	C606.028015,197.571426 606.143616,205.487747 598.342285,213.314697 
	C578.830078,232.891083 559.246399,252.396164 539.385681,271.685730 
	C540.411438,268.294525 541.742859,265.147461 543.213562,261.671112 
	C538.742798,260.933319 536.976990,257.898010 536.663025,253.391144 
	C536.581360,252.219513 534.786804,251.006714 533.555176,250.125717 
	C532.542175,249.401138 530.958984,249.416367 530.042297,248.624603 
	C526.424133,245.499649 522.870728,242.284607 519.483337,238.912094 
	C516.573792,236.015244 517.503235,229.305115 510.762146,230.168610 
	C510.615540,230.187378 510.279419,229.677567 510.232574,229.382446 
	C509.460175,224.516495 506.123352,223.939514 503.440735,224.498962 
	C500.778687,221.165497 498.842407,218.400482 496.561859,215.956741 
	C491.979065,211.045975 487.911133,205.099808 482.313293,201.850891 
	C476.962891,198.745636 473.592407,195.207703 471.523865,189.718231 
	C471.046204,188.450638 469.719757,186.930267 468.504425,186.619568 
	C464.705902,185.648499 462.447845,183.433594 461.224030,179.819809 
	C461.000763,179.160538 460.064423,178.730408 459.434082,178.223267 
	C454.157379,173.978165 447.305145,170.982422 447.149841,162.683426 
	C441.094299,163.209259 438.674164,158.328232 436.276703,154.476715 
	C432.484619,148.384735 429.734222,146.940414 424.395172,151.214172 
	C417.791199,156.500412 411.761597,162.499435 405.354828,168.041351 
	C404.209808,169.031845 402.438232,169.297989 400.955933,169.898590 
z"/>
<path fill="#5C90EE" opacity="1.000000" stroke="none" 
	d="
M198.025314,374.092255 
	C199.960831,381.332428 204.336624,386.425842 210.064941,391.404755 
	C213.911102,394.747772 218.419998,397.545898 221.738556,401.444885 
	C224.480240,404.666168 226.462311,408.535095 228.761520,412.129486 
	C228.932541,412.396820 228.840683,412.920044 229.049469,413.062164 
	C231.877884,414.987427 235.795792,416.255798 237.326721,418.908630 
	C239.314926,422.353851 240.725128,425.119202 245.205505,425.084656 
	C248.541870,425.058868 249.776489,427.092712 251.319992,430.243622 
	C254.045197,435.806854 257.478912,442.866943 262.462585,445.013702 
	C268.707581,447.703796 271.693237,452.542328 276.058960,456.509857 
	C280.903442,460.912598 285.947418,465.095795 290.793610,469.496674 
	C291.801971,470.412354 292.268005,471.903046 293.086609,473.055847 
	C294.003448,474.347107 295.066589,475.533478 296.012695,476.805176 
	C297.384613,478.649231 298.648529,480.576050 300.066956,482.382446 
	C302.241486,485.151611 304.386658,487.960266 306.767334,490.546844 
	C309.614105,493.639862 310.484406,497.066284 309.374451,501.503357 
	C309.407013,501.945435 309.394531,502.006714 309.048065,501.820679 
	C307.554352,503.160065 306.407135,504.685516 305.259888,506.210968 
	C293.922913,517.662354 282.767975,529.302551 271.173737,540.487305 
	C265.172760,546.276367 256.972137,545.553040 250.636795,539.323853 
	C240.675629,529.529480 230.853058,519.594055 220.985703,509.704498 
	C197.141266,485.806549 173.304901,461.900482 149.268814,437.375427 
	C148.690689,436.498169 148.309036,436.243195 147.927368,435.988220 
	C147.927383,435.988220 147.994461,435.998077 148.217621,435.617767 
	C147.290710,430.009216 147.132599,424.792480 151.173309,420.728638 
	C166.710098,405.103088 182.395401,389.625214 198.025314,374.092255 
z"/>
<path fill="#679AF7" opacity="1.000000" stroke="none" 
	d="
M443.738892,367.730286 
	C444.219788,365.485565 444.681946,362.891968 445.881561,360.702362 
	C447.299683,358.113892 448.283997,357.009430 444.785431,354.562012 
	C440.662262,351.677612 437.981049,346.719208 434.716766,342.626404 
	C433.487854,341.085602 432.714996,338.821777 431.147461,337.979095 
	C426.814606,335.649902 423.161621,333.150116 420.998596,328.316010 
	C420.171509,326.467621 416.391296,326.145111 414.389771,324.575287 
	C410.191681,321.282684 405.800171,318.036377 402.358002,314.024658 
	C396.380341,307.057922 391.811127,298.733307 385.215393,292.496674 
	C380.495300,288.033569 374.914124,284.720062 370.933838,279.086121 
	C366.910095,273.390656 361.232819,268.867188 356.323303,263.788330 
	C355.771759,263.217773 355.613312,261.846802 355.085632,261.735870 
	C345.384338,259.695984 342.021393,249.858505 334.509888,245.303543 
	C332.952789,244.359329 329.813599,245.976166 327.418457,246.483032 
	C326.305878,246.718491 325.228973,247.122528 324.046753,247.164719 
	C338.392059,232.321518 352.826538,217.763733 367.940094,203.070496 
	C372.218018,200.655075 376.010559,198.623138 379.352295,196.013870 
	C381.868286,194.049408 384.081940,193.278366 386.278534,195.809189 
	C391.211121,201.492371 395.867035,207.416473 400.829498,213.072357 
	C401.858887,214.245560 403.737335,215.340744 405.210754,215.323181 
	C408.627380,215.282394 410.252930,216.460037 411.194061,219.840714 
	C411.789215,221.978638 413.729065,223.803833 415.256714,225.607574 
	C418.376099,229.290710 422.846313,232.378784 424.524994,236.600693 
	C426.875946,242.513336 431.059906,244.538620 436.569794,246.032608 
	C434.787720,251.425522 439.978363,250.877335 442.383087,252.910599 
	C445.144043,255.245102 448.716522,257.547180 449.883087,260.638306 
	C452.016571,266.291290 456.626617,269.810608 460.890747,272.148193 
	C466.013000,274.956207 469.327759,278.721375 472.682404,282.967957 
	C475.189392,286.141571 475.507965,292.065887 481.936829,290.578613 
	C482.208313,290.515808 482.662964,291.587280 483.139801,292.008728 
	C484.939758,293.599609 486.755188,295.176056 488.624664,296.683777 
	C489.502716,297.391907 490.959381,297.710327 491.395538,298.583984 
	C493.770966,303.341736 499.156219,307.441223 495.095642,313.795868 
	C494.872894,314.144470 495.089874,314.774048 495.102173,315.272888 
	C489.272034,321.489258 483.523804,327.785156 477.589539,333.900513 
	C471.177765,340.507904 464.588409,346.942841 458.083588,353.460083 
	C453.398529,358.154053 448.725128,362.859711 443.738892,367.730286 
z"/>
<path fill="#699CF8" opacity="1.000000" stroke="none" 
	d="
M495.417847,315.139465 
	C495.089874,314.774048 494.872894,314.144470 495.095642,313.795868 
	C499.156219,307.441223 493.770966,303.341736 491.395538,298.583984 
	C490.959381,297.710327 489.502716,297.391907 488.624664,296.683777 
	C486.755188,295.176056 484.939758,293.599609 483.139801,292.008728 
	C482.662964,291.587280 482.208313,290.515808 481.936829,290.578613 
	C475.507965,292.065887 475.189392,286.141571 472.682404,282.967957 
	C469.327759,278.721375 466.013000,274.956207 460.890747,272.148193 
	C456.626617,269.810608 452.016571,266.291290 449.883087,260.638306 
	C448.716522,257.547180 445.144043,255.245102 442.383087,252.910599 
	C439.978363,250.877335 434.787720,251.425522 436.569794,246.032608 
	C431.059906,244.538620 426.875946,242.513336 424.524994,236.600693 
	C422.846313,232.378784 418.376099,229.290710 415.256714,225.607574 
	C413.729065,223.803833 411.789215,221.978638 411.194061,219.840714 
	C410.252930,216.460037 408.627380,215.282394 405.210754,215.323181 
	C403.737335,215.340744 401.858887,214.245560 400.829498,213.072357 
	C395.867035,207.416473 391.211121,201.492371 386.278534,195.809189 
	C384.081940,193.278366 381.868286,194.049408 379.352295,196.013870 
	C376.010559,198.623138 372.218018,200.655075 368.246887,202.944580 
	C378.695923,192.026093 389.517273,181.098129 400.647278,170.034363 
	C402.438232,169.297989 404.209808,169.031845 405.354828,168.041351 
	C411.761597,162.499435 417.791199,156.500412 424.395172,151.214172 
	C429.734222,146.940414 432.484619,148.384735 436.276703,154.476715 
	C438.674164,158.328232 441.094299,163.209259 447.149841,162.683426 
	C447.305145,170.982422 454.157379,173.978165 459.434082,178.223267 
	C460.064423,178.730408 461.000763,179.160538 461.224030,179.819809 
	C462.447845,183.433594 464.705902,185.648499 468.504425,186.619568 
	C469.719757,186.930267 471.046204,188.450638 471.523865,189.718231 
	C473.592407,195.207703 476.962891,198.745636 482.313293,201.850891 
	C487.911133,205.099808 491.979065,211.045975 496.561859,215.956741 
	C498.842407,218.400482 500.778687,221.165497 503.440735,224.498962 
	C506.123352,223.939514 509.460175,224.516495 510.232574,229.382446 
	C510.279419,229.677567 510.615540,230.187378 510.762146,230.168610 
	C517.503235,229.305115 516.573792,236.015244 519.483337,238.912094 
	C522.870728,242.284607 526.424133,245.499649 530.042297,248.624603 
	C530.958984,249.416367 532.542175,249.401138 533.555176,250.125717 
	C534.786804,251.006714 536.581360,252.219513 536.663025,253.391144 
	C536.976990,257.898010 538.742798,260.933319 543.213562,261.671112 
	C541.742859,265.147461 540.411438,268.294525 539.076233,271.827759 
	C524.626160,286.477966 510.179840,300.742004 495.417847,315.139465 
M480.885132,204.618149 
	C480.865356,204.849396 480.845551,205.080643 480.825775,205.311890 
	C480.956757,205.315750 481.087708,205.319595 481.218658,205.323441 
	C481.210449,205.091202 481.202209,204.858963 480.885132,204.618149 
z"/>
<path fill="#D9AB3C" opacity="1.000000" stroke="none" 
	d="
M198.172058,373.789795 
	C182.395401,389.625214 166.710098,405.103088 151.173309,420.728638 
	C147.132599,424.792480 147.290710,430.009216 148.209457,435.650696 
	C146.624283,434.980560 145.270447,433.897186 143.784912,432.505127 
	C144.012146,431.647003 144.711670,431.076569 144.679260,430.551361 
	C144.129715,421.644348 149.977020,416.426910 155.578049,410.862000 
	C189.892334,376.769470 224.107605,342.577271 258.347260,308.409637 
	C258.572083,308.185303 258.675751,307.839569 258.941956,307.227600 
	C259.690369,307.432922 260.332855,307.961121 261.112030,308.773926 
	C260.629120,310.175507 260.009521,311.292542 259.252625,312.706482 
	C245.657028,326.334412 232.184662,339.651215 218.746414,353.002289 
	C211.905548,359.798798 205.126038,366.656982 198.172058,373.789795 
z"/>
<path fill="#5F93F1" opacity="1.000000" stroke="none" 
	d="
M305.550537,506.098724 
	C306.407135,504.685516 307.554352,503.160065 309.016785,501.820740 
	C308.168365,503.333405 307.004761,504.659943 305.550537,506.098724 
z"/>
<path fill="#6397F4" opacity="1.000000" stroke="none" 
	d="
M373.423553,437.205444 
	C373.872345,436.543579 374.650543,435.827362 375.787292,435.103119 
	C375.348236,435.780396 374.550568,436.465759 373.423553,437.205444 
z"/>
<path fill="#D9AB3C" opacity="1.000000" stroke="none" 
	d="
M147.941238,436.343445 
	C148.309036,436.243195 148.690689,436.498169 149.067673,437.146179 
	C148.693710,437.259033 148.324417,436.978851 147.941238,436.343445 
z"/>
<path fill="#6C9FFA" opacity="1.000000" stroke="none" 
	d="
M481.039551,204.622437 
	C481.202209,204.858963 481.210449,205.091202 481.218689,205.323441 
	C481.087708,205.319595 480.956757,205.315750 480.825775,205.311890 
	C480.845551,205.080643 480.865356,204.849396 481.039551,204.622437 
z"/>
</svg>